# xmcd CD database file
#
# Track frame offsets:
#	150
#	12554
#	24300
#	37118
#	50056
#	61578
#	73128
#	88953
#	101243
#	115347
#	126361
#	138856
#	152043
#	161165
#	174329
#	188861
#	208549
#	221572
#	233659
#	244058
#	261884
#	274125
#
# Disc length: 3985 seconds
#
# Revision: 4
# Processed by: cddbd v1.5.2PL0 Copyright (c) Steve Scherf et al.
# Submitted via: CDex 1.51
#
DISCID=470f8f16
DTITLE=Quincy Jones - Songs From Pussycats/Quincy In Rio
DYEAR=2012
DGENRE=Jazz
TTITLE0=What's New Pussycat
TTITLE1=A Taste Of Honey
TTITLE2=Sermonette
TTITLE3=A Walk In The Black Forest
TTITLE4=Mack The Knife
TTITLE5=Moon River
TTITLE6=Take Five
TTITLE7=Gravy Waltz
TTITLE8=I Hear A Symphony
TTITLE9=Mr. Lucky
TTITLE10=Cast Your Fate To The Wind
TTITLE11=Manha De Carnaval
TTITLE12=Samba De Una Nota So (One Note Samba)
TTITLE13=Desafinado
TTITLE14=Bossa Nova U.S.A.
TTITLE15=Se E Tarde Me Pardoa (Pardon Me If I'm Late)
TTITLE16=(I Love You) And Don't You Forget It
TTITLE17=Non-Stop To Brazil
TTITLE18=The Gentle Rain
TTITLE19=Baia
TTITLE20=Jive Samba
TTITLE21=Chega De Saudade (No More Blues)
EXTD=YEAR: 2012
EXTT0=
EXTT1=
EXTT2=
EXTT3=
EXTT4=
EXTT5=
EXTT6=
EXTT7=
EXTT8=
EXTT9=
EXTT10=
EXTT11=
EXTT12=
EXTT13=
EXTT14=
EXTT15=
EXTT16=
EXTT17=
EXTT18=
EXTT19=
EXTT20=
EXTT21=
PLAYORDER=
